<svg xmlns="http://www.w3.org/2000/svg" width="16" height="16" viewBox="0 0 16 16">
  <path d="M8 1.5a.5.5 0 0 0-.5.5v.5H6a1 1 0 0 0-.894.553L4.5 3.5H3a.5.5 0 0 0-.5.5v3a.5.5 0 0 0 .5.5h.086l2.207 2.207a.5.5 0 0 0 .353.146H7.5v.5a.5.5 0 0 0 1 0v-.5h1.854a.5.5 0 0 0 .353-.146L12.914 7.5H13a.5.5 0 0 0 .5-.5v-3a.5.5 0 0 0-.5-.5h-1.5l-.606-1.053A1 1 0 0 0 10 2H8.5V2a.5.5 0 0 0-.5-.5zm-.5 2h1.146l.5.868A.5.5 0 0 0 9.5 4.5h3v2h-.5a.5.5 0 0 0-.354.146L9.44 8.854H8.5v-.354a.5.5 0 0 0-1 0v.354H6.56L4.354 6.646A.5.5 0 0 0 4 6.5H3.5v-2h2a.5.5 0 0 0 .447-.276L6.5 3.5z"/>
  <path d="M5.646 9.646a.5.5 0 0 1 .708.708l-2 2a.5.5 0 0 1-.708-.708zm4 0a.5.5 0 0 0-.708.708l2 2a.5.5 0 0 0 .708-.708z"/>
</svg>
